<svg id="Ñëîé_1" data-name="Ñëîé 1" xmlns="http://www.w3.org/2000/svg" viewBox="0 0 1300 800"><defs><style>.cls-1{fill:#f2f2f2;}.cls-2{fill:none;}.cls-3{fill:#c0272d;}</style></defs><rect class="cls-1" width="1300" height="800"/><line class="cls-2" x1="387.79" y1="327.97" x2="387.79" y2="685.12"/><path class="cls-3" d="M322.65,445.48l-20.57-88.05a6.75,6.75,0,0,0-6.58-5.22h0a6.75,6.75,0,0,0-6.56,5.29l-14.46,65.11-17.6-241.19a6.75,6.75,0,0,0-6.73-6.26h0a6.74,6.74,0,0,0-6.71,6.31L217.22,587.29,200.58,401.38a6.76,6.76,0,0,0-13.07-1.72L170.8,445.14,0,445.47V459l172-.34a11.85,11.85,0,0,0,11.07-7.72l6.74-18.35,16.27,181.77a11.6,11.6,0,0,0,10.73,10.48c.25,0,.5,0,.75,0A11.5,11.5,0,0,0,229,614.07l21.5-333.63,11.84,162.22a10.7,10.7,0,0,0,21.12,1.53l12.18-54.83L310,450.88A10.47,10.47,0,0,0,320.27,459l979.73-.32V445.16Z"/></svg>